<?xml version="1.0"?>
<svg xmlns="http://www.w3.org/2000/svg" xmlns:xlink="http://www.w3.org/1999/xlink" xmlns:svgjs="http://svgjs.com/svgjs" version="1.1" width="512" height="512" x="0" y="0" viewBox="0 0 64 64" style="enable-background:new 0 0 512 512" xml:space="preserve" class=""><g><g xmlns="http://www.w3.org/2000/svg" fill="#c4a2fc"><rect height="20" rx="1" transform="matrix(.707 -.707 .707 .707 -13.057 39.227)" width="18" x="31.824" y="25.375" fill="#003a7045" data-original="#c4a2fc" style=""/><path d="m60.623 39.618-1.415-1.418a3.07 3.07 0 0 0 -4.242 0l-11.315 11.318a3 3 0 0 0 0 4.242l1.415 1.414a3 3 0 0 0 4.242 0l11.315-11.314a3 3 0 0 0 0-4.242z" fill="#003a7045" data-original="#c4a2fc" style=""/><path d="m22.439 32.546a3 3 0 0 0 4.242 0l11.319-11.314a3 3 0 0 0 0-4.242l-1.414-1.413a3.072 3.072 0 0 0 -4.244 0l-11.317 11.313a3 3 0 0 0 0 4.242z" fill="#003a7045" data-original="#c4a2fc" style=""/><path d="m30.217 40.325a1 1 0 0 0 -1.414 0l-14.142 14.142a5 5 0 0 0 7.071 7.071l14.142-14.138a1 1 0 0 0 0-1.414z" fill="#003a7045" data-original="#c4a2fc" style=""/></g><path xmlns="http://www.w3.org/2000/svg" d="m52.355 24.512c0-.012-7.269-11.843-7.269-11.843a4 4 0 1 0 -5.444-4.669h-9.524a4 4 0 1 0 -5.236 0h-9.524a3.993 3.993 0 1 0 -5.444 4.669s-7.265 11.831-7.27 11.844a.977.977 0 0 0 -.144.487 9 9 0 0 0 18 0 .971.971 0 0 0 -.145-.488c0-.012-7.269-11.843-7.269-11.843a4.006 4.006 0 0 0 2.272-2.669h11.142v26h-7a3 3 0 0 0 -3 3v2h-4a1 1 0 0 0 0 2h30a1 1 0 0 0 0-2h-4v-2a3 3 0 0 0 -3-3h-7v-26h11.142a4.006 4.006 0 0 0 2.272 2.669s-7.265 11.831-7.27 11.844a.977.977 0 0 0 -.144.487 9 9 0 0 0 18 0 .971.971 0 0 0 -.145-.488zm-15.855 14.488v2h-18v-2a1 1 0 0 1 1-1h16a1 1 0 0 1 1 1zm-9-36a2 2 0 1 1 -2 2 2 2 0 0 1 2-2zm-16 10.908 6.211 10.092h-12.422zm0 18.092a7.011 7.011 0 0 1 -6.929-6h13.858a7.011 7.011 0 0 1 -6.929 6zm0-21a2 2 0 1 1 2-2 2 2 0 0 1 -2 2zm32-4a2 2 0 1 1 -2 2 2 2 0 0 1 2-2zm6.211 17h-12.422l6.211-10.092zm-6.211 8a7.011 7.011 0 0 1 -6.929-6h13.858a7.011 7.011 0 0 1 -6.929 6z" fill="#003a70" data-original="#151a6a" style="" class=""/></g></svg>
